# xmcd
#
# Track frame offsets:
#	150
#	21735
#	40837
#	55870
#	83770
#	110660
#	122085
#	151117
#	196000
#	218697
#	247557
#	266035
#	307072
#
# Disc length: 4536 seconds
#
# Revision: 1
# Processed by: cddbd v1.5.2PL0 Copyright (c) Steve Scherf et al.
# Submitted via: audiograbber 1.83.01
#
DISCID=a911b60d
DTITLE=Various Artist - RHYTHM 1 HIGHLIGHTS Drums [CD 3)
DYEAR=2004
DGENRE=Jazz
TTITLE0=1957 Howard Rumsey's Lighthouse All Stars ft Max Roach - Facts About Ma
TTITLE0=x
TTITLE1=1961 Bud Shank Sextet - Barefoot Adventure
TTITLE2=1952 Louie Bellson - Sticks
TTITLE3=1958 Art Blakey - Let's Take 16 Bars
TTITLE4=1955 Lou Donaldson Quintet - Caravan
TTITLE5=1957 Joe Morello Quintet - Sweet Georgia Brown
TTITLE6=1963 Andrew Hill Quartet ft  Roy Haynes - Not so
TTITLE7=1965 Pete La Roca Quartet - Basra
TTITLE8=1965 Tony Williams - Echo
TTITLE9=1973 Elvin Jones - Pauke Tanz
TTITLE10=1974 Alphonse Mouzon - Mind Transplant
TTITLE11=1998 Jacky Terrasson Sextet - Mino Cinelu and Jaz Sawyer
TTITLE12=data - Daten
EXTD=YEAR: 2004
EXTT0=
EXTT1=
EXTT2=
EXTT3=
EXTT4=
EXTT5=
EXTT6=
EXTT7=
EXTT8=
EXTT9=
EXTT10=
EXTT11=
EXTT12=
PLAYORDER=
